<svg xmlns="http://www.w3.org/2000/svg" width="12" height="17" viewBox="0 0 12 17">
  <defs>
    <style>
      .cls-1 {
        fill: #3a3124;
        fill-rule: evenodd;
      }
    </style>
  </defs>
  <path id="Forma_1" data-name="Forma 1" class="cls-1" d="M1012.01,11139h-0.02c-3.3,0-5.99,2.4-5.99,5.3,0,1.9.98,4.5,2.93,7.6a34.56,34.56,0,0,0,2.91,4,0.157,0.157,0,0,0,.18.1h0a0.157,0.157,0,0,0,.18-0.1c0.01,0,1.46-2,2.89-4.3,1.93-3.3,2.91-5.7,2.91-7.3C1018,11141.4,1015.31,11139,1012.01,11139Zm2.77,5.5a2.8,2.8,0,1,1-2.78-2.5A2.632,2.632,0,0,1,1014.78,11144.5Z" transform="translate(-1006 -11139)"/>
</svg>
