<svg xmlns="http://www.w3.org/2000/svg" width="23" height="26" viewBox="0 0 23 26">
  <metadata><?xpacket begin="﻿" id="W5M0MpCehiHzreSzNTczkc9d"?>
<x:xmpmeta xmlns:x="adobe:ns:meta/" x:xmptk="Adobe XMP Core 5.6-c138 79.159824, 2016/09/14-01:09:01        ">
   <rdf:RDF xmlns:rdf="http://www.w3.org/1999/02/22-rdf-syntax-ns#">
      <rdf:Description rdf:about=""/>
   </rdf:RDF>
</x:xmpmeta>
                                                                                                    
                                                                                                    
                                                                                                    
                                                                                                    
                                                                                                    
                                                                                                    
                                                                                                    
                                                                                                    
                                                                                                    
                                                                                                    
                                                                                                    
                                                                                                    
                                                                                                    
                                                                                                    
                                                                                                    
                                                                                                    
                                                                                                    
                                                                                                    
                                                                                                    
                                                                                                    
                           
<?xpacket end="w"?></metadata>
<defs>
    <style>
      .cls-1 {
        fill-rule: evenodd;
      }
    </style>
  </defs>
  <path id="Forma_1" data-name="Forma 1" class="cls-1" d="M1082.57,3316h-20.14a1.35,1.35,0,0,0-1.43,1.26v23.48a1.357,1.357,0,0,0,1.43,1.26h20.14a1.357,1.357,0,0,0,1.43-1.26v-23.48A1.35,1.35,0,0,0,1082.57,3316Zm0.45,24.74a0.426,0.426,0,0,1-.45.39h-20.14a0.426,0.426,0,0,1-.45-0.39v-23.48a0.427,0.427,0,0,1,.45-0.4h20.14a0.427,0.427,0,0,1,.45.4v23.48Zm-19.57-.91h5.38v-4.77h-5.38v4.77Zm0.98-3.9h3.42v3.03h-3.42v-3.03Zm5.38,3.9h5.38v-4.77h-5.38v4.77Zm0.98-3.9h3.42v3.03h-3.42v-3.03Zm5.38,3.9h5.38v-10.4h-5.38v10.4Zm0.98-9.53h3.42v8.66h-3.42v-8.66Zm-13.7,3.9h5.38v-4.77h-5.38v4.77Zm0.98-3.9h3.42v3.03h-3.42v-3.03Zm5.38,3.9h5.38v-4.77h-5.38v4.77Zm0.98-3.9h3.42v3.03h-3.42v-3.03Zm-7.34-1.74h5.38v-4.76h-5.38v4.76Zm0.98-3.9h3.42v3.04h-3.42v-3.04Zm5.38,3.9h5.38v-4.76h-5.38v4.76Zm0.98-3.9h3.42v3.04h-3.42v-3.04Zm5.38,3.9h5.38v-4.76h-5.38v4.76Zm0.98-3.9h3.42v3.04h-3.42v-3.04Zm-13.7-2.16h18.1v-4.34h-18.1v4.34Zm0.98-3.47h16.14v2.6h-16.14v-2.6Z" transform="translate(-1061 -3316)"/>
</svg>
