<svg xmlns="http://www.w3.org/2000/svg" width="43.03" height="36.03" viewBox="0 0 43.03 36.03">
  <metadata><?xpacket begin="﻿" id="W5M0MpCehiHzreSzNTczkc9d"?>
<x:xmpmeta xmlns:x="adobe:ns:meta/" x:xmptk="Adobe XMP Core 5.6-c138 79.159824, 2016/09/14-01:09:01        ">
   <rdf:RDF xmlns:rdf="http://www.w3.org/1999/02/22-rdf-syntax-ns#">
      <rdf:Description rdf:about=""/>
   </rdf:RDF>
</x:xmpmeta>
                                                                                                    
                                                                                                    
                                                                                                    
                                                                                                    
                                                                                                    
                                                                                                    
                                                                                                    
                                                                                                    
                                                                                                    
                                                                                                    
                                                                                                    
                                                                                                    
                                                                                                    
                                                                                                    
                                                                                                    
                                                                                                    
                                                                                                    
                                                                                                    
                                                                                                    
                                                                                                    
                           
<?xpacket end="w"?></metadata>
<defs>
    <style>
      .cls-1 {
        fill-rule: evenodd;
      }
    </style>
  </defs>
  <path id="Forma_1" data-name="Forma 1" class="cls-1" d="M1146.22,3749h-29.48a0.609,0.609,0,0,1-.65-0.56v-15.71a0.657,0.657,0,0,1,1.3,0v15.15h28.18v-15.15a0.657,0.657,0,0,1,1.3,0v15.71A0.609,0.609,0,0,1,1146.22,3749Zm-0.02-15.68a0.738,0.738,0,0,1-.45-0.15l-14.27-11.61-14.26,11.61a0.737,0.737,0,0,1-.92-0.02,0.514,0.514,0,0,1,.02-0.8l14.71-11.97a0.75,0.75,0,0,1,.9,0l14.72,11.97a0.514,0.514,0,0,1,.02.8A0.733,0.733,0,0,1,1146.2,3733.32Zm6.13-2.26a0.749,0.749,0,0,1-.45-0.16l-20.4-16.59-20.4,16.59a0.737,0.737,0,0,1-.92-0.02,0.514,0.514,0,0,1,.02-0.8l20.85-16.95a0.722,0.722,0,0,1,.9,0l20.85,16.95a0.514,0.514,0,0,1,.02.8A0.692,0.692,0,0,1,1152.33,3731.06ZM1136.68,3749h-10.4a0.609,0.609,0,0,1-.65-0.56v-12.16a0.609,0.609,0,0,1,.65-0.56h10.4a0.609,0.609,0,0,1,.65.56v12.16A0.609,0.609,0,0,1,1136.68,3749Zm-9.75-1.12h9.1v-11.04h-9.1v11.04Z" transform="translate(-1109.97 -3712.97)"/>
</svg>
