<svg xmlns="http://www.w3.org/2000/svg" width="19" height="22" viewBox="0 0 19 22">
  <metadata><?xpacket begin="﻿" id="W5M0MpCehiHzreSzNTczkc9d"?>
<x:xmpmeta xmlns:x="adobe:ns:meta/" x:xmptk="Adobe XMP Core 5.6-c138 79.159824, 2016/09/14-01:09:01        ">
   <rdf:RDF xmlns:rdf="http://www.w3.org/1999/02/22-rdf-syntax-ns#">
      <rdf:Description rdf:about=""/>
   </rdf:RDF>
</x:xmpmeta>
                                                                                                    
                                                                                                    
                                                                                                    
                                                                                                    
                                                                                                    
                                                                                                    
                                                                                                    
                                                                                                    
                                                                                                    
                                                                                                    
                                                                                                    
                                                                                                    
                                                                                                    
                                                                                                    
                                                                                                    
                                                                                                    
                                                                                                    
                                                                                                    
                                                                                                    
                                                                                                    
                           
<?xpacket end="w"?></metadata>
<defs>
    <style>
      .cls-1 {
        fill: #fff;
        fill-rule: evenodd;
      }
    </style>
  </defs>
  <path id="Forma_1" data-name="Forma 1" class="cls-1" d="M384.5,443.166a0.367,0.367,0,1,1-.38.366A0.373,0.373,0,0,1,384.5,443.166Zm1.14-.733a0.367,0.367,0,1,1-.38.366A0.373,0.373,0,0,1,385.64,442.433Zm-2.28,0a0.367,0.367,0,1,1-.38.366A0.373,0.373,0,0,1,383.36,442.433Zm-1.14-.735a0.368,0.368,0,1,1-.38.367A0.373,0.373,0,0,1,382.22,441.7Zm4.56,0a0.368,0.368,0,1,1-.38.367A0.373,0.373,0,0,1,386.78,441.7Zm1.14-.733a0.367,0.367,0,1,1-.38.367A0.373,0.373,0,0,1,387.92,440.965Zm-6.84,0a0.367,0.367,0,1,1-.38.367A0.373,0.373,0,0,1,381.08,440.965Zm3.42,0.733a0.368,0.368,0,1,1-.38.367A0.373,0.373,0,0,1,384.5,441.7Zm0,4.4a0.367,0.367,0,1,1-.38.367A0.374,0.374,0,0,1,384.5,446.1Zm0,1.1a0.367,0.367,0,1,1-.38.367A0.373,0.373,0,0,1,384.5,447.2Zm0,1.1a0.367,0.367,0,1,1-.38.367A0.373,0.373,0,0,1,384.5,448.3Zm0,1.1a0.367,0.367,0,1,1-.38.367A0.373,0.373,0,0,1,384.5,449.4Zm0,1.1a0.367,0.367,0,1,1-.38.367A0.373,0.373,0,0,1,384.5,450.5Zm0,1.1a0.367,0.367,0,1,1-.38.367A0.373,0.373,0,0,1,384.5,451.6Zm9.12,3.667h-1.14V453.8h-1.9v-3.748a2.922,2.922,0,0,0-1.364-2.459L385.185,445l4.031-2.593a2.925,2.925,0,0,0,1.364-2.459V436.2h1.9v-1.465h1.14a0.368,0.368,0,1,0,0-.735H375.38a0.368,0.368,0,1,0,0,.735h1.14V436.2h1.9v3.749a2.925,2.925,0,0,0,1.364,2.459L383.815,445l-4.031,2.593a2.922,2.922,0,0,0-1.364,2.459V453.8h-1.9v1.466h-1.14a0.367,0.367,0,1,0,0,.733h18.24A0.367,0.367,0,1,0,393.62,455.265ZM380.205,441.8a2.2,2.2,0,0,1-1.025-1.848V436.2h10.64v3.749A2.2,2.2,0,0,1,388.8,441.8l-4.3,2.763Zm-1.025,8.256a2.2,2.2,0,0,1,1.025-1.849l4.3-2.764,4.3,2.764a2.2,2.2,0,0,1,1.025,1.849V453.8H379.18v-3.748Z" transform="translate(-375 -434)"/>
</svg>
