<svg xmlns="http://www.w3.org/2000/svg" width="24" height="17" viewBox="0 0 24 17">
  <metadata><?xpacket begin="﻿" id="W5M0MpCehiHzreSzNTczkc9d"?>
<x:xmpmeta xmlns:x="adobe:ns:meta/" x:xmptk="Adobe XMP Core 5.6-c138 79.159824, 2016/09/14-01:09:01        ">
   <rdf:RDF xmlns:rdf="http://www.w3.org/1999/02/22-rdf-syntax-ns#">
      <rdf:Description rdf:about=""/>
   </rdf:RDF>
</x:xmpmeta>
                                                                                                    
                                                                                                    
                                                                                                    
                                                                                                    
                                                                                                    
                                                                                                    
                                                                                                    
                                                                                                    
                                                                                                    
                                                                                                    
                                                                                                    
                                                                                                    
                                                                                                    
                                                                                                    
                                                                                                    
                                                                                                    
                                                                                                    
                                                                                                    
                                                                                                    
                                                                                                    
                           
<?xpacket end="w"?></metadata>
<defs>
    <style>
      .cls-1 {
        fill: #fff;
        fill-rule: evenodd;
      }
    </style>
  </defs>
  <path id="Forma_1" data-name="Forma 1" class="cls-1" d="M398.91,574.354L399,562.838a1.622,1.622,0,0,0-2.369-1.461,7.527,7.527,0,0,1-3.623.839,22.215,22.215,0,0,1-5.534-1.047,24.811,24.811,0,0,0-6.367-1.164,10.7,10.7,0,0,0-5.142,1.2,1.631,1.631,0,0,0-.879,1.433L375,574.158a1.623,1.623,0,0,0,2.371,1.461,7.5,7.5,0,0,1,3.623-.837,21.991,21.991,0,0,1,5.533,1.047,24.9,24.9,0,0,0,6.367,1.163,10.7,10.7,0,0,0,5.143-1.2A1.637,1.637,0,0,0,398.91,574.354Zm-22.29-.182c0.032-3.815.064-7.7,0.094-11.516,6.943-3.606,13.724,3.776,20.665.168-0.03,3.814-.061,7.7-0.092,11.518C390.345,577.946,383.563,570.566,376.62,574.172Zm13.045-4.235a2.183,2.183,0,0,0-.242-0.885,2.3,2.3,0,0,0-.5-0.634,2.843,2.843,0,0,0-.7-0.45c-0.267-.12-0.541-0.235-0.83-0.338,0.051-.664.1-1.324,0.12-1.96a0.916,0.916,0,0,1,.6.216,1.824,1.824,0,0,1,.333.417c0.09,0.152.173,0.29,0.254,0.414a0.442,0.442,0,0,0,.339.206,0.543,0.543,0,0,0,.413-0.139,0.653,0.653,0,0,0,.2-0.462,1.057,1.057,0,0,0-.182-0.7,1.937,1.937,0,0,0-.542-0.528,2.536,2.536,0,0,0-.721-0.318,2.838,2.838,0,0,0-.684-0.106c0-.074,0-0.147,0-0.219a0.307,0.307,0,0,0-.1-0.215,0.284,0.284,0,0,0-.233-0.082,0.291,0.291,0,0,0-.217.109,0.294,0.294,0,0,0-.073.218c0,0.07.011,0.137,0.015,0.207a3.787,3.787,0,0,0-.945.211,2.76,2.76,0,0,0-.791.431,1.716,1.716,0,0,0-.5.613,1.5,1.5,0,0,0-.12.8,1.876,1.876,0,0,0,.648,1.265,4.05,4.05,0,0,0,1.546.846c-0.059.732-.114,1.462-0.141,2.164a1.257,1.257,0,0,1-.591-0.172,0.851,0.851,0,0,1-.292-0.308,1.334,1.334,0,0,1-.126-0.371,2.471,2.471,0,0,0-.089-0.363,0.769,0.769,0,0,0-.168-0.29,0.551,0.551,0,0,0-.367-0.14,0.516,0.516,0,0,0-.427.14,0.708,0.708,0,0,0-.183.47,1.683,1.683,0,0,0,.1.657,2.033,2.033,0,0,0,1.074,1.169,2.46,2.46,0,0,0,1.056.215c0,0.2.007,0.393,0.016,0.583a0.312,0.312,0,0,0,.34.285,0.314,0.314,0,0,0,.223-0.112,0.281,0.281,0,0,0,.07-0.212q-0.029-.273-0.042-0.56a4.376,4.376,0,0,0,1.066-.234,2.823,2.823,0,0,0,.817-0.443,1.578,1.578,0,0,0,.477-0.606A1.56,1.56,0,0,0,389.665,569.937Zm-3.576-2.858a0.787,0.787,0,0,1-.256-0.6,0.6,0.6,0,0,1,.075-0.3,0.825,0.825,0,0,1,.22-0.261,1.063,1.063,0,0,1,.347-0.186,1.571,1.571,0,0,1,.456-0.08c0,0.583-.035,1.192-0.078,1.814A1.935,1.935,0,0,1,386.089,567.079Zm1.527,3.882a1.725,1.725,0,0,1-.435.071c0.008-.649.049-1.33,0.1-2.019,0.119,0.047.242,0.095,0.374,0.15a1.893,1.893,0,0,1,.359.2,1.083,1.083,0,0,1,.269.3,0.833,0.833,0,0,1,.106.42,0.757,0.757,0,0,1-.106.408,0.989,0.989,0,0,1-.275.287A1.335,1.335,0,0,1,387.616,570.961Zm-4.923.321h0a14.128,14.128,0,0,0-1.923-.158,11.679,11.679,0,0,0-1.816.122l-0.93.136v0a0.408,0.408,0,0,0,.079.808,0.342,0.342,0,0,0,.1-0.014l0.87-.129a11.034,11.034,0,0,1,1.689-.112,12.749,12.749,0,0,1,1.829.153v0a0.249,0.249,0,0,0,.053.007A0.408,0.408,0,0,0,382.693,571.282Zm10.456-6.136a13.436,13.436,0,0,1-1.791-.149,0.371,0.371,0,0,0-.116-0.019,0.411,0.411,0,0,0-.024.821v0a14.625,14.625,0,0,0,1.923.158,11.922,11.922,0,0,0,1.814-.121l0.932-.139v0a0.41,0.41,0,0,0-.024-0.819,0.432,0.432,0,0,0-.121.019l-0.9.134A10.941,10.941,0,0,1,393.149,565.146Z" transform="translate(-375 -560)"/>
</svg>
