<svg xmlns="http://www.w3.org/2000/svg" width="47" height="26" viewBox="0 0 47 26">
  <metadata><?xpacket begin="﻿" id="W5M0MpCehiHzreSzNTczkc9d"?>
<x:xmpmeta xmlns:x="adobe:ns:meta/" x:xmptk="Adobe XMP Core 5.6-c138 79.159824, 2016/09/14-01:09:01        ">
   <rdf:RDF xmlns:rdf="http://www.w3.org/1999/02/22-rdf-syntax-ns#">
      <rdf:Description rdf:about=""/>
   </rdf:RDF>
</x:xmpmeta>
                                                                                                    
                                                                                                    
                                                                                                    
                                                                                                    
                                                                                                    
                                                                                                    
                                                                                                    
                                                                                                    
                                                                                                    
                                                                                                    
                                                                                                    
                                                                                                    
                                                                                                    
                                                                                                    
                                                                                                    
                                                                                                    
                                                                                                    
                                                                                                    
                                                                                                    
                                                                                                    
                           
<?xpacket end="w"?></metadata>
<defs>
    <style>
      .cls-1 {
        fill-rule: evenodd;
      }
    </style>
  </defs>
  <path id="Forma_1" data-name="Forma 1" class="cls-1" d="M1154.03,4057.01h-0.81v-20.67a1.78,1.78,0,1,0-1.94,0v0.94h-18.81v-0.94a1.78,1.78,0,1,0-1.94,0v0.94h-18.81v-0.94a1.78,1.78,0,1,0-1.94,0v20.67h-0.81a1,1,0,0,0,0,1.99h45.06A1,1,0,0,0,1154.03,4057.01Zm-35.83-17.74h5.19v17.51a0.908,0.908,0,0,0,.03.23h-5.24a1.785,1.785,0,0,0,.02-0.23v-17.51Zm7.14,17.51v-17.51h5.19v17.51a1.785,1.785,0,0,0,.02.23h-5.24A0.908,0.908,0,0,0,1125.34,4056.78Zm7.13,0v-17.51h5.19v17.51a0.908,0.908,0,0,0,.03.23h-5.24A1.785,1.785,0,0,0,1132.47,4056.78Zm7.14,0v-17.51h5.19v17.51a1.785,1.785,0,0,0,.02.23h-5.24A0.908,0.908,0,0,0,1139.61,4056.78Zm-27.89-17.51h4.54v17.51a1.785,1.785,0,0,0,.02.23h-4.56v-17.74Zm35,17.74a1.785,1.785,0,0,0,.02-0.23v-17.51h4.54v17.74h-4.56Z" transform="translate(-1108 -4033)"/>
</svg>
