<svg xmlns="http://www.w3.org/2000/svg" width="37" height="45" viewBox="0 0 37 45">
  <metadata><?xpacket begin="﻿" id="W5M0MpCehiHzreSzNTczkc9d"?>
<x:xmpmeta xmlns:x="adobe:ns:meta/" x:xmptk="Adobe XMP Core 5.6-c138 79.159824, 2016/09/14-01:09:01        ">
   <rdf:RDF xmlns:rdf="http://www.w3.org/1999/02/22-rdf-syntax-ns#">
      <rdf:Description rdf:about=""/>
   </rdf:RDF>
</x:xmpmeta>
                                                                                                    
                                                                                                    
                                                                                                    
                                                                                                    
                                                                                                    
                                                                                                    
                                                                                                    
                                                                                                    
                                                                                                    
                                                                                                    
                                                                                                    
                                                                                                    
                                                                                                    
                                                                                                    
                                                                                                    
                                                                                                    
                                                                                                    
                                                                                                    
                                                                                                    
                                                                                                    
                           
<?xpacket end="w"?></metadata>
<defs>
    <style>
      .cls-1 {
        fill-rule: evenodd;
      }
    </style>
  </defs>
  <path class="cls-1" d="M1459.78,3714.77l-4.2-4.5a0.9,0.9,0,0,0-.65-0.27h-0.84v-2.25a0.8,0.8,0,0,0-.84-0.75h-11.77a0.8,0.8,0,0,0-.84.75V3716h-10.92a0.8,0.8,0,0,0-.84.75V3719h-0.84a0.9,0.9,0,0,0-.65.27l-4.2,4.5a0.681,0.681,0,0,0-.11.8,0.854,0.854,0,0,0,.76.43h2.52a3.382,3.382,0,0,0,6.72,0h2.52a0.842,0.842,0,0,0,.76-0.43,0.681,0.681,0,0,0-.11-0.8l-4.2-4.5a0.9,0.9,0,0,0-.65-0.27h-0.84v-1.5h10.08v28.51c-3.78.12-7.56,1.07-7.56,2.99,0,2.06,4.36,3,8.4,3s8.41-.94,8.41-3c0-1.92-3.78-2.87-7.57-2.99V3708.5h10.09v1.5h-0.84a0.9,0.9,0,0,0-.65.27l-4.2,4.5a0.681,0.681,0,0,0-.11.8,0.842,0.842,0,0,0,.76.43h2.52a3.382,3.382,0,0,0,6.72,0h2.52a0.854,0.854,0,0,0,.76-0.43A0.681,0.681,0,0,0,1459.78,3714.77Zm-30.06,11.73a1.6,1.6,0,0,1-1.68-1.5h3.36A1.6,1.6,0,0,1,1429.72,3726.5Zm1.29-6,2.8,3h-8.18l2.8-3h2.58Zm17.2,28.5c0,0.38-2.31,1.5-6.73,1.5s-6.72-1.12-6.72-1.5c0-.36,2.02-1.36,5.88-1.49v0.74a0.845,0.845,0,0,0,1.68,0v-0.74C1446.19,3747.64,1448.21,3748.64,1448.21,3749Zm5.04-31.5a1.6,1.6,0,0,1-1.68-1.5h3.36A1.6,1.6,0,0,1,1453.25,3717.5Zm-4.09-3,2.8-3h2.58l2.8,3h-8.18Z" transform="translate(-1423 -3707)"/>
</svg>
