<svg xmlns="http://www.w3.org/2000/svg" width="24" height="26" viewBox="0 0 24 26">
  <metadata><?xpacket begin="﻿" id="W5M0MpCehiHzreSzNTczkc9d"?>
<x:xmpmeta xmlns:x="adobe:ns:meta/" x:xmptk="Adobe XMP Core 5.6-c138 79.159824, 2016/09/14-01:09:01        ">
   <rdf:RDF xmlns:rdf="http://www.w3.org/1999/02/22-rdf-syntax-ns#">
      <rdf:Description rdf:about=""/>
   </rdf:RDF>
</x:xmpmeta>
                                                                                                    
                                                                                                    
                                                                                                    
                                                                                                    
                                                                                                    
                                                                                                    
                                                                                                    
                                                                                                    
                                                                                                    
                                                                                                    
                                                                                                    
                                                                                                    
                                                                                                    
                                                                                                    
                                                                                                    
                                                                                                    
                                                                                                    
                                                                                                    
                                                                                                    
                                                                                                    
                           
<?xpacket end="w"?></metadata>
<defs>
    <style>
      .cls-1 {
        fill: #fff;
        fill-rule: evenodd;
      }
    </style>
  </defs>
  <path id="Forma_1" data-name="Forma 1" class="cls-1" d="M387,495.888a0.481,0.481,0,0,0,.48-0.483V493.48a0.48,0.48,0,1,0-.96,0v1.925A0.481,0.481,0,0,0,387,495.888Zm11.52,8.665H396.6a0.482,0.482,0,0,0,0,.964h1.92A0.482,0.482,0,0,0,398.52,504.553Zm-21.12,0h-1.92a0.482,0.482,0,0,0,0,.964h1.92A0.482,0.482,0,0,0,377.4,504.553Zm17.407-8.029-1.358,1.362a0.48,0.48,0,1,0,.679.68l1.357-1.362A0.48,0.48,0,0,0,394.807,496.524Zm-14.935,14.981-1.358,1.361a0.482,0.482,0,0,0,.34.822,0.475,0.475,0,0,0,.339-0.141l1.358-1.361a0.483,0.483,0,0,0,0-.681A0.477,0.477,0,0,0,379.872,511.505Zm14.256,0a0.477,0.477,0,0,0-.679,0,0.483,0.483,0,0,0,0,.681l1.358,1.361a0.478,0.478,0,0,0,.678,0,0.482,0.482,0,0,0,0-.681Zm-14.256-12.939a0.479,0.479,0,0,0,.679,0,0.482,0.482,0,0,0,0-.68l-1.358-1.362a0.477,0.477,0,0,0-.679,0,0.482,0.482,0,0,0,0,.68ZM387,499.257a5.776,5.776,0,0,0-5.76,5.778,0.48,0.48,0,1,0,.96,0,4.812,4.812,0,0,1,4.8-4.814A0.482,0.482,0,0,0,387,499.257Zm0-2.407a8.187,8.187,0,0,0-2.88,15.841v4.381a0.48,0.48,0,0,0,.48.482h0.48v0.963a0.48,0.48,0,0,0,.48.481h2.88a0.48,0.48,0,0,0,.48-0.481v-0.963h0.48a0.481,0.481,0,0,0,.48-0.482v-4.381A8.187,8.187,0,0,0,387,496.85Zm2.25,15.043a0.481,0.481,0,0,0-.33.457v0.871h-3.84V512.35a0.48,0.48,0,0,0-.33-0.457A7.2,7.2,0,1,1,389.25,511.893Z" transform="translate(-375 -493)"/>
</svg>
