<svg xmlns="http://www.w3.org/2000/svg" width="16" height="13" viewBox="0 0 16 13">
  <metadata><?xpacket begin="﻿" id="W5M0MpCehiHzreSzNTczkc9d"?>
<x:xmpmeta xmlns:x="adobe:ns:meta/" x:xmptk="Adobe XMP Core 5.6-c138 79.159824, 2016/09/14-01:09:01        ">
   <rdf:RDF xmlns:rdf="http://www.w3.org/1999/02/22-rdf-syntax-ns#">
      <rdf:Description rdf:about=""/>
   </rdf:RDF>
</x:xmpmeta>
                                                                                                    
                                                                                                    
                                                                                                    
                                                                                                    
                                                                                                    
                                                                                                    
                                                                                                    
                                                                                                    
                                                                                                    
                                                                                                    
                                                                                                    
                                                                                                    
                                                                                                    
                                                                                                    
                                                                                                    
                                                                                                    
                                                                                                    
                                                                                                    
                                                                                                    
                                                                                                    
                           
<?xpacket end="w"?></metadata>
<defs>
    <style>
      .cls-1 {
        fill: #3a3124;
        fill-rule: evenodd;
      }
    </style>
  </defs>
  <path id="Forma_1" data-name="Forma 1" class="cls-1" d="M1014.09,11184.4c2.7,0,4.38-.2,4.61,2.8h3.29c0-4.6-4.04-5.2-7.99-5.2s-7.99.6-7.99,5.2h3.27C1009.53,11184.2,1011.41,11184.3,1014.09,11184.4Zm-6.44,4.3c0.8,0,1.46,0,1.61-.8a1.526,1.526,0,0,0,.03-0.3H1006C1006,11188.7,1006.74,11188.7,1007.65,11188.7Zm11.07-1.1h-0.03a1.544,1.544,0,0,0,.04.3c0.15,0.7.82,0.7,1.62,0.7,0.91,0,1.65.1,1.65-1h-3.28Zm-1.6-.8v-0.5c0-.2-0.24-0.2-0.54-0.2h-0.48c-0.3,0-.54,0-0.54.2v0.7h-3.42v-0.7c0-.2-0.24-0.2-0.54-0.2h-0.48c-0.3,0-.54,0-0.54.2v0.9a35.6,35.6,0,0,0-3.43,4.6l0.01,2.7a0.469,0.469,0,0,0,.46.5h12.46a0.469,0.469,0,0,0,.46-0.5v-2.7a34.5,34.5,0,0,0-3.42-4.6v-0.4Zm-5.15,5.4a0.469,0.469,0,0,1-.46-0.5,0.451,0.451,0,0,1,.46-0.4,0.441,0.441,0,0,1,.45.4A0.462,0.462,0,0,1,1011.97,11192.2Zm0-1.6a0.451,0.451,0,0,1-.46-0.4,0.469,0.469,0,0,1,.46-0.5,0.462,0.462,0,0,1,.45.5A0.441,0.441,0,0,1,1011.97,11190.6Zm0-1.5a0.469,0.469,0,0,1-.46-0.5,0.451,0.451,0,0,1,.46-0.4,0.441,0.441,0,0,1,.45.4A0.462,0.462,0,0,1,1011.97,11189.1Zm1.87,3.1a0.469,0.469,0,0,1-.46-0.5,0.451,0.451,0,0,1,.46-0.4,0.441,0.441,0,0,1,.45.4A0.462,0.462,0,0,1,1013.84,11192.2Zm0-1.6a0.451,0.451,0,0,1-.46-0.4,0.469,0.469,0,0,1,.46-0.5,0.462,0.462,0,0,1,.45.5A0.441,0.441,0,0,1,1013.84,11190.6Zm0-1.5a0.469,0.469,0,0,1-.46-0.5,0.451,0.451,0,0,1,.46-0.4,0.441,0.441,0,0,1,.45.4A0.462,0.462,0,0,1,1013.84,11189.1Zm1.86,3.1a0.462,0.462,0,0,1-.45-0.5,0.441,0.441,0,0,1,.45-0.4,0.451,0.451,0,0,1,.46.4A0.469,0.469,0,0,1,1015.7,11192.2Zm0-1.6a0.441,0.441,0,0,1-.45-0.4,0.462,0.462,0,0,1,.45-0.5,0.469,0.469,0,0,1,.46.5A0.451,0.451,0,0,1,1015.7,11190.6Zm0-1.5a0.462,0.462,0,0,1-.45-0.5,0.441,0.441,0,0,1,.45-0.4,0.451,0.451,0,0,1,.46.4A0.469,0.469,0,0,1,1015.7,11189.1Z" transform="translate(-1006 -11182)"/>
</svg>
