<svg xmlns="http://www.w3.org/2000/svg" width="30" height="36" viewBox="0 0 30 36">
  <metadata><?xpacket begin="﻿" id="W5M0MpCehiHzreSzNTczkc9d"?>
<x:xmpmeta xmlns:x="adobe:ns:meta/" x:xmptk="Adobe XMP Core 5.6-c138 79.159824, 2016/09/14-01:09:01        ">
   <rdf:RDF xmlns:rdf="http://www.w3.org/1999/02/22-rdf-syntax-ns#">
      <rdf:Description rdf:about=""/>
   </rdf:RDF>
</x:xmpmeta>
                                                                                                    
                                                                                                    
                                                                                                    
                                                                                                    
                                                                                                    
                                                                                                    
                                                                                                    
                                                                                                    
                                                                                                    
                                                                                                    
                                                                                                    
                                                                                                    
                                                                                                    
                                                                                                    
                                                                                                    
                                                                                                    
                                                                                                    
                                                                                                    
                                                                                                    
                                                                                                    
                           
<?xpacket end="w"?></metadata>
<defs>
    <style>
      .cls-1 {
        fill-rule: evenodd;
      }
    </style>
  </defs>
  <path id="Forma_1" data-name="Forma 1" class="cls-1" d="M785.891,3746.28h-13.78a7.971,7.971,0,0,1-8.11-7.81v-9.5a2.39,2.39,0,0,1,2.432-2.34h25.135a2.39,2.39,0,0,1,2.431,2.34v9.5A7.97,7.97,0,0,1,785.891,3746.28Zm-19.458-18.54a1.255,1.255,0,0,0-1.278,1.23v9.49a6.844,6.844,0,0,0,6.956,6.71h13.78a6.843,6.843,0,0,0,6.954-6.71v-9.49a1.255,1.255,0,0,0-1.277-1.23H766.433Zm5.89,0a0.568,0.568,0,0,1-.577-0.56v-10.41a1.7,1.7,0,0,0-1.732-1.67h-0.191a1.7,1.7,0,0,0-1.732,1.67v10.41a0.577,0.577,0,0,1-1.154,0v-10.41a2.841,2.841,0,0,1,2.886-2.79h0.19a2.841,2.841,0,0,1,2.886,2.79v10.41A0.567,0.567,0,0,1,772.323,3727.74Zm18.162,0a0.569,0.569,0,0,1-.578-0.56v-10.41a1.7,1.7,0,0,0-1.732-1.67h-0.189a1.7,1.7,0,0,0-1.732,1.67v10.41a0.577,0.577,0,0,1-1.154,0v-10.41a2.841,2.841,0,0,1,2.886-2.79h0.189a2.841,2.841,0,0,1,2.887,2.79v10.41A0.569,0.569,0,0,1,790.485,3727.74Zm-7.153,22.27h-8.664a0.568,0.568,0,0,1-.577-0.56v-3.72a0.568,0.568,0,0,1,.577-0.56h8.664a0.568,0.568,0,0,1,.577.56v3.72A0.568,0.568,0,0,1,783.332,3750.01Zm-8.087-1.11h7.51v-2.62h-7.51v2.62Zm2.074-8.84,1.4-3.72-1.772-.49,3.321-3.8-0.993,3.32,1.771,0.49Zm0,0.56a0.6,0.6,0,0,1-.291-0.08,0.549,0.549,0,0,1-.252-0.67l1.191-3.16-1.176-.32a0.552,0.552,0,0,1-.284-0.9l3.322-3.8a0.584,0.584,0,0,1,.713-0.13,0.54,0.54,0,0,1,.283.64l-0.833,2.79,1.214,0.33a0.592,0.592,0,0,1,.395.38,0.532,0.532,0,0,1-.114.52l-3.73,4.2A0.582,0.582,0,0,1,777.319,3740.62Zm1.736-4.74a0.677,0.677,0,0,1,.18.21,0.523,0.523,0,0,1,.028.44l-0.316.84,1.079-1.21-0.9-.25Zm-1.09-.33,0.914,0.26a0.163,0.163,0,0,1,.066.02,0.563,0.563,0,0,1-.221-0.61l0.242-.81Z" transform="translate(-764 -3714)"/>
</svg>
