<svg xmlns="http://www.w3.org/2000/svg" width="38.97" height="43" viewBox="0 0 38.97 43">
  <metadata><?xpacket begin="﻿" id="W5M0MpCehiHzreSzNTczkc9d"?>
<x:xmpmeta xmlns:x="adobe:ns:meta/" x:xmptk="Adobe XMP Core 5.6-c138 79.159824, 2016/09/14-01:09:01        ">
   <rdf:RDF xmlns:rdf="http://www.w3.org/1999/02/22-rdf-syntax-ns#">
      <rdf:Description rdf:about=""/>
   </rdf:RDF>
</x:xmpmeta>
                                                                                                    
                                                                                                    
                                                                                                    
                                                                                                    
                                                                                                    
                                                                                                    
                                                                                                    
                                                                                                    
                                                                                                    
                                                                                                    
                                                                                                    
                                                                                                    
                                                                                                    
                                                                                                    
                                                                                                    
                                                                                                    
                                                                                                    
                                                                                                    
                                                                                                    
                                                                                                    
                           
<?xpacket end="w"?></metadata>
<defs>
    <style>
      .cls-1 {
        fill-rule: evenodd;
      }
    </style>
  </defs>
  <path id="Forma_1" data-name="Forma 1" class="cls-1" d="M1438.34,3886.55a9.65,9.65,0,0,1-1.04-6.14c0.82-4.85,9.32-10.33,18.62-9.86l0.08-1.53c-10.24-.5-19.29,5.57-20.23,11.14a11.16,11.16,0,0,0,1.14,6.98,13.566,13.566,0,0,1,1.35,5c0.17,3.29-9.89,8.54-16.26,11.08l0.58,1.42c1.79-.72,17.5-7.14,17.23-12.57A14.929,14.929,0,0,0,1438.34,3886.55Zm22.6,10.68a14,14,0,0,0-5.71-10.39c-5.47-3.64-5.91-5.58-4.75-7.52,2.67-4.48,9.55-4.55,9.55-4.55v-1.53s-7.77.06-10.89,5.31c-2.29,3.85,1.23,6.87,5.28,9.55a12.467,12.467,0,0,1,5,9.25c0.25,3.35-.63,8.42-6.28,13.52l1.05,1.13C1460.3,3906.49,1461.22,3900.93,1460.94,3897.23Zm-22,10.63,0.36,1.49a11.614,11.614,0,0,0,1.96-.71l-0.65-1.39A10.1,10.1,0,0,1,1438.94,3907.86Zm5.15-20.51a33.445,33.445,0,0,1,1.83,3.54l1.43-.58a33.723,33.723,0,0,0-1.91-3.71Zm-0.5-7.65-1.42-.62a5.187,5.187,0,0,0-.48,2.17,6.665,6.665,0,0,0,.48,2.36l1.45-.53a5.256,5.256,0,0,1-.38-1.83A3.721,3.721,0,0,1,1443.59,3879.7Zm0.25,25.44,1.05,1.12a11.772,11.772,0,0,0,2.62-3.48l-1.39-.66A10.245,10.245,0,0,1,1443.84,3905.14Zm4.71-10.77-1.53.25a12.851,12.851,0,0,1,.16,1.39c0.03,0.35.04,0.7,0.04,1.04a13.218,13.218,0,0,1-.08,1.42l1.55,0.16c0.05-.51.08-1.04,0.08-1.58,0-.37-0.01-0.75-0.04-1.15Q1448.67,3895.135,1448.55,3894.37Zm-1.89-19.85c-0.59.4-1.13,0.79-1.61,1.18l0.98,1.18c0.44-.35.95-0.72,1.5-1.09Z" transform="translate(-1422 -3869)"/>
</svg>
