<svg xmlns="http://www.w3.org/2000/svg" width="49" height="31" viewBox="0 0 49 31">
  <metadata><?xpacket begin="﻿" id="W5M0MpCehiHzreSzNTczkc9d"?>
<x:xmpmeta xmlns:x="adobe:ns:meta/" x:xmptk="Adobe XMP Core 5.6-c138 79.159824, 2016/09/14-01:09:01        ">
   <rdf:RDF xmlns:rdf="http://www.w3.org/1999/02/22-rdf-syntax-ns#">
      <rdf:Description rdf:about=""/>
   </rdf:RDF>
</x:xmpmeta>
                                                                                                    
                                                                                                    
                                                                                                    
                                                                                                    
                                                                                                    
                                                                                                    
                                                                                                    
                                                                                                    
                                                                                                    
                                                                                                    
                                                                                                    
                                                                                                    
                                                                                                    
                                                                                                    
                                                                                                    
                                                                                                    
                                                                                                    
                                                                                                    
                                                                                                    
                                                                                                    
                           
<?xpacket end="w"?></metadata>
<defs>
    <style>
      .cls-1 {
        fill-rule: evenodd;
      }
    </style>
  </defs>
  <path id="Forma_1" data-name="Forma 1" class="cls-1" d="M1120.49,3883.7h-6.77a2.285,2.285,0,0,0-2.49,1.99v5.4a2.285,2.285,0,0,0,2.49,1.99h6.77a2.285,2.285,0,0,0,2.49-1.99v-5.4A2.285,2.285,0,0,0,1120.49,3883.7Zm0.9,7.39a0.822,0.822,0,0,1-.9.72h-6.77a0.822,0.822,0,0,1-.9-0.72v-5.4a0.822,0.822,0,0,1,.9-0.72h6.77a0.822,0.822,0,0,1,.9.72v5.4Zm32.12,16.94c-4.29,0-7.87-3.51-11.67-7.23-4.35-4.25-8.84-8.64-15.47-8.97v-6.14c0-2.59-2.64-4.69-5.88-4.69h-6.77c-3.24,0-5.87,2.1-5.87,4.69v25.04h-0.06a0.65,0.65,0,1,0,0,1.27h5.08a0.652,0.652,0,1,0,0-1.27h-0.05V3896.5a0.822,0.822,0,0,1,.9-0.72h6.77a0.822,0.822,0,0,1,.9.72v14.23h-0.05a0.65,0.65,0,1,0,0,1.27h5.08a0.65,0.65,0,1,0,0-1.27h-0.05v-14.91a12.19,12.19,0,0,1,6.03,2.51v12.4h-0.9a0.65,0.65,0,1,0,0,1.27h3.39a0.65,0.65,0,1,0,0-1.27h-0.9v-11.15c1.33,1.13,2.65,2.42,3.99,3.73,0.95,0.93,1.9,1.86,2.89,2.75v4.67h-0.9a0.652,0.652,0,1,0,0,1.27h3.38a0.652,0.652,0,1,0,0-1.27h-0.9v-3.28c3.13,2.58,6.62,4.55,11.06,4.55A2.036,2.036,0,1,0,1153.51,3908.03Zm-30.53,2.7V3896.5a2.285,2.285,0,0,0-2.49-1.99h-6.77a2.285,2.285,0,0,0-2.49,1.99v14.23h-1.8v-25.04c0-1.89,1.93-3.42,4.29-3.42h6.77c2.37,0,4.29,1.53,4.29,3.42v25.04h-1.8Zm30.53,0c-5.89,0-10.17-4.18-14.3-8.22-3.99-3.91-7.78-7.61-12.84-7.97v-1.44c5.9,0.35,10.13,4.49,14.24,8.5,4.04,3.96,7.86,7.69,12.9,7.69A0.738,0.738,0,1,1,1153.51,3910.73Z" transform="translate(-1107 -3881)"/>
</svg>
