<svg xmlns="http://www.w3.org/2000/svg" width="27" height="19" viewBox="0 0 27 19">
  <metadata><?xpacket begin="﻿" id="W5M0MpCehiHzreSzNTczkc9d"?>
<x:xmpmeta xmlns:x="adobe:ns:meta/" x:xmptk="Adobe XMP Core 5.6-c138 79.159824, 2016/09/14-01:09:01        ">
   <rdf:RDF xmlns:rdf="http://www.w3.org/1999/02/22-rdf-syntax-ns#">
      <rdf:Description rdf:about=""/>
   </rdf:RDF>
</x:xmpmeta>
                                                                                                    
                                                                                                    
                                                                                                    
                                                                                                    
                                                                                                    
                                                                                                    
                                                                                                    
                                                                                                    
                                                                                                    
                                                                                                    
                                                                                                    
                                                                                                    
                                                                                                    
                                                                                                    
                                                                                                    
                                                                                                    
                                                                                                    
                                                                                                    
                                                                                                    
                                                                                                    
                           
<?xpacket end="w"?></metadata>
<defs>
    <style>
      .cls-1 {
        fill: #fff;
        fill-rule: evenodd;
      }
    </style>
  </defs>
  <path id="Forma_1" data-name="Forma 1" class="cls-1" d="M388.262,634.115H375.9V616.882h16.8v8.875a0.451,0.451,0,0,0,.9,0v-9.319a0.447,0.447,0,0,0-.451-0.444h-17.7a0.447,0.447,0,0,0-.451.444V634.56a0.448,0.448,0,0,0,.451.444h12.814A0.445,0.445,0,1,0,388.262,634.115ZM383.077,619.1a0.455,0.455,0,0,0-.638,0l-1.956,1.924-1-.98a0.456,0.456,0,0,0-.637,0,0.438,0.438,0,0,0,0,.628l1.314,1.294a0.459,0.459,0,0,0,.638,0l2.275-2.239A0.438,0.438,0,0,0,383.077,619.1Zm6.538,1.46h-5.862a0.445,0.445,0,1,0,0,.889h5.862A0.445,0.445,0,1,0,389.615,620.56Zm-6.538,2.977a0.457,0.457,0,0,0-.638,0l-1.956,1.925-1-.98a0.456,0.456,0,0,0-.637,0,0.437,0.437,0,0,0,0,.627l1.314,1.294a0.454,0.454,0,0,0,.638,0l2.275-2.238A0.439,0.439,0,0,0,383.077,623.537ZM389.615,625h-5.862a0.444,0.444,0,1,0,0,.888h5.862A0.444,0.444,0,1,0,389.615,625Zm-7.176,2.977-1.956,1.924-1-.981a0.456,0.456,0,0,0-.637,0,0.439,0.439,0,0,0,0,.629l1.314,1.293a0.456,0.456,0,0,0,.638,0l2.275-2.238a0.438,0.438,0,0,0,0-.627A0.455,0.455,0,0,0,382.439,627.976Zm7.176,1.461h-5.862a0.444,0.444,0,1,0,0,.887h5.862A0.444,0.444,0,1,0,389.615,629.437Zm9.521-1.492-4.509,4.593-1.193-1.152,4.632-4.451Zm-6.346,2.819-0.823-.795,4.559-4.486,0.889,0.838Zm0.229,3.351-1.3-1.144c-0.01-.009-0.026-0.013-0.037-0.022v-2.012l3.293,3.178h-1.956Zm3.056-.18-0.8-.777,4.516-4.6,0.894,0.842Zm2.39-7.853a0.4,0.4,0,0,0-.06-0.091,0.439,0.439,0,0,0-.127-0.086l-1.114-1.051,0.771-.758,4.068,4-0.685.674Z" transform="translate(-375 -616)"/>
</svg>
