<svg xmlns="http://www.w3.org/2000/svg" width="39" height="39" viewBox="0 0 39 39">
  <metadata><?xpacket begin="﻿" id="W5M0MpCehiHzreSzNTczkc9d"?>
<x:xmpmeta xmlns:x="adobe:ns:meta/" x:xmptk="Adobe XMP Core 5.6-c138 79.159824, 2016/09/14-01:09:01        ">
   <rdf:RDF xmlns:rdf="http://www.w3.org/1999/02/22-rdf-syntax-ns#">
      <rdf:Description rdf:about=""/>
   </rdf:RDF>
</x:xmpmeta>
                                                                                                    
                                                                                                    
                                                                                                    
                                                                                                    
                                                                                                    
                                                                                                    
                                                                                                    
                                                                                                    
                                                                                                    
                                                                                                    
                                                                                                    
                                                                                                    
                                                                                                    
                                                                                                    
                                                                                                    
                                                                                                    
                                                                                                    
                                                                                                    
                                                                                                    
                                                                                                    
                           
<?xpacket end="w"?></metadata>
<defs>
    <style>
      .cls-1 {
        fill-rule: evenodd;
      }
    </style>
  </defs>
  <path id="Forma_1" data-name="Forma 1" class="cls-1" d="M798.047,4035.47l-9.519-9.52a3.247,3.247,0,0,0-2.3-.95H772.768a3.247,3.247,0,0,0-2.3.95l-9.519,9.52a3.226,3.226,0,0,0-.951,2.3v13.46a3.243,3.243,0,0,0,.951,2.3l9.519,9.52a3.247,3.247,0,0,0,2.3.95h13.463a3.249,3.249,0,0,0,2.3-.95l9.518-9.52a3.24,3.24,0,0,0,.952-2.3v-13.46A3.22,3.22,0,0,0,798.047,4035.47Zm-0.347,15.76a1.963,1.963,0,0,1-.572,1.38l-9.519,9.52a1.978,1.978,0,0,1-1.379.57H772.768a1.98,1.98,0,0,1-1.379-.57l-9.518-9.52a1.984,1.984,0,0,1-.571-1.38v-13.46a1.967,1.967,0,0,1,.571-1.38l9.519-9.52a1.976,1.976,0,0,1,1.378-.57h13.463a1.982,1.982,0,0,1,1.38.57l9.518,9.52a1.949,1.949,0,0,1,.571,1.38v13.46h0Zm-6.329-13.47a6.641,6.641,0,0,0-2.245.08,0.251,0.251,0,0,0-.084.02c-0.434.16-.434,0.16-0.442,8.13h0V4051h1.3v-4.27a5.527,5.527,0,0,0,.576.03,6.724,6.724,0,0,0,.894-0.06,2.81,2.81,0,0,0,2.43-2.82v-3.29A2.82,2.82,0,0,0,791.371,4037.76Zm1.129,6.12a1.532,1.532,0,0,1-1.286,1.53,5.777,5.777,0,0,1-1.314.02c0-2.29.006-5.21,0.01-6.4a6.37,6.37,0,0,1,1.3.02,1.542,1.542,0,0,1,1.287,1.54v3.29h0Zm-9.75-6.21c-2.764,0-3.25,2.2-3.25,6.83s0.486,6.82,3.25,6.82,3.25-2.2,3.25-6.82C786,4039.97,785.5,4037.67,782.75,4037.67Zm0,12.35c-1.047,0-1.95,0-1.95-5.52s0.9-5.53,1.95-5.53c1,0,1.95,0,1.95,5.53S783.8,4050.02,782.75,4050.02ZM771.7,4039.3h2.6V4051h1.3v-11.7h2.6V4038h-6.5v1.3Zm-3.428,4.49-0.783-.6a2.92,2.92,0,0,1-1.087-3.18,1.3,1.3,0,0,1,1.429-1.03,6.081,6.081,0,0,1,1.758.19l0.322-1.26a7.348,7.348,0,0,0-2.149-.23,2.573,2.573,0,0,0-2.6,1.93,4.225,4.225,0,0,0,1.534,4.61l0.782,0.6a3.531,3.531,0,0,1,1.619,2.67c-0.055,1.52-.8,2.46-1.981,2.53a5.781,5.781,0,0,1-1.758-.2l-0.322,1.26a7.308,7.308,0,0,0,1.811.24c0.113,0,.224,0,0.338-0.01,1.871-.1,3.132-1.58,3.212-3.77A4.728,4.728,0,0,0,768.272,4043.79Z" transform="translate(-760 -4025)"/>
</svg>
