<svg xmlns="http://www.w3.org/2000/svg" width="42" height="30.97" viewBox="0 0 42 30.97">
  <metadata><?xpacket begin="﻿" id="W5M0MpCehiHzreSzNTczkc9d"?>
<x:xmpmeta xmlns:x="adobe:ns:meta/" x:xmptk="Adobe XMP Core 5.6-c138 79.159824, 2016/09/14-01:09:01        ">
   <rdf:RDF xmlns:rdf="http://www.w3.org/1999/02/22-rdf-syntax-ns#">
      <rdf:Description rdf:about=""/>
   </rdf:RDF>
</x:xmpmeta>
                                                                                                    
                                                                                                    
                                                                                                    
                                                                                                    
                                                                                                    
                                                                                                    
                                                                                                    
                                                                                                    
                                                                                                    
                                                                                                    
                                                                                                    
                                                                                                    
                                                                                                    
                                                                                                    
                                                                                                    
                                                                                                    
                                                                                                    
                                                                                                    
                                                                                                    
                                                                                                    
                           
<?xpacket end="w"?></metadata>
<defs>
    <style>
      .cls-1 {
        fill-rule: evenodd;
      }
    </style>
  </defs>
  <path id="Forma_1" data-name="Forma 1" class="cls-1" d="M799.581,3891.97l-14.1-10.76a1.064,1.064,0,0,0-1.269,0l-2.318,1.77-2.318-1.77a1.062,1.062,0,0,0-1.268,0l-2.26,1.73-2.261-1.73a1.062,1.062,0,0,0-1.268,0l-14.1,10.76a1.072,1.072,0,0,0-.419.85v18.11a1.062,1.062,0,0,0,1.053,1.07h39.894a1.063,1.063,0,0,0,1.053-1.07v-18.11A1.072,1.072,0,0,0,799.581,3891.97Zm-1.688,17.9h-3.8v-17.05a1.072,1.072,0,0,0-.419-0.85l-10.033-7.65,1.2-.92,13.047,9.95v16.52Zm-9.586,0v-17.05a1.072,1.072,0,0,0-.419-0.85l-10.091-7.7,1.145-.87,13.047,9.95v16.52h-3.682Zm-13.429,0h-3.45v-7.73h3.45v7.73Zm2.107,0v-8.8a1.06,1.06,0,0,0-1.053-1.06h-5.557a1.06,1.06,0,0,0-1.053,1.06v8.8h-9.216v-16.52l13.047-9.95,13.048,9.95v16.52h-9.216Z" transform="translate(-758 -3881.03)"/>
</svg>
