<svg xmlns="http://www.w3.org/2000/svg" width="55" height="24" viewBox="0 0 55 24">
  <metadata><?xpacket begin="﻿" id="W5M0MpCehiHzreSzNTczkc9d"?>
<x:xmpmeta xmlns:x="adobe:ns:meta/" x:xmptk="Adobe XMP Core 5.6-c138 79.159824, 2016/09/14-01:09:01        ">
   <rdf:RDF xmlns:rdf="http://www.w3.org/1999/02/22-rdf-syntax-ns#">
      <rdf:Description rdf:about=""/>
   </rdf:RDF>
</x:xmpmeta>
                                                                                                    
                                                                                                    
                                                                                                    
                                                                                                    
                                                                                                    
                                                                                                    
                                                                                                    
                                                                                                    
                                                                                                    
                                                                                                    
                                                                                                    
                                                                                                    
                                                                                                    
                                                                                                    
                                                                                                    
                                                                                                    
                                                                                                    
                                                                                                    
                                                                                                    
                                                                                                    
                           
<?xpacket end="w"?></metadata>
<defs>
    <style>
      .cls-1 {
        fill-rule: evenodd;
      }
    </style>
  </defs>
  <path class="cls-1" d="M501.277,3747.23h-4.272l-2.742-5.17a0.891,0.891,0,0,0-.789-0.47h-1.7v-2.41a0.883,0.883,0,0,0-.891-0.88h-31.6a0.883,0.883,0,0,0-.891.88v2.41h-1.7a0.891,0.891,0,0,0-.789.47l-2.742,5.17h-4.272a0.885,0.885,0,1,0,0,1.77h52.386A0.885,0.885,0,1,0,501.277,3747.23Zm-41.1-7.17h29.816v1.53H460.176v-1.53Zm-5,7.17,2.058-3.88h35.7l2.058,3.88H455.175Zm23.338-18.01-2.7-3.84a0.9,0.9,0,0,0-1.464,0l-2.7,3.84a4.1,4.1,0,0,0,.477,5.28,4.2,4.2,0,0,0,5.9,0A4.1,4.1,0,0,0,478.513,3729.22Zm-1.738,4.03a2.392,2.392,0,0,1-3.382,0,2.343,2.343,0,0,1-.274-3.02l1.965-2.8,1.965,2.8A2.343,2.343,0,0,1,476.775,3733.25Zm13.752,0.64a0.88,0.88,0,1,0,0,1.76,2.96,2.96,0,0,1,2.97,2.94,0.891,0.891,0,0,0,1.782,0A4.733,4.733,0,0,0,490.527,3733.89Zm0-7.65a0.885,0.885,0,1,0,0,1.77,10.644,10.644,0,0,1,10.691,10.58,0.891,0.891,0,0,0,1.782,0A12.426,12.426,0,0,0,490.527,3726.24Zm0,3.83a0.88,0.88,0,1,0,0,1.76,6.8,6.8,0,0,1,6.83,6.76,0.891,0.891,0,0,0,1.782,0A8.575,8.575,0,0,0,490.527,3730.07Z" transform="translate(-448 -3725)"/>
</svg>
