<svg xmlns="http://www.w3.org/2000/svg" width="40.938" height="30" viewBox="0 0 40.938 30">
  <metadata><?xpacket begin="﻿" id="W5M0MpCehiHzreSzNTczkc9d"?>
<x:xmpmeta xmlns:x="adobe:ns:meta/" x:xmptk="Adobe XMP Core 5.6-c138 79.159824, 2016/09/14-01:09:01        ">
   <rdf:RDF xmlns:rdf="http://www.w3.org/1999/02/22-rdf-syntax-ns#">
      <rdf:Description rdf:about=""/>
   </rdf:RDF>
</x:xmpmeta>
                                                                                                    
                                                                                                    
                                                                                                    
                                                                                                    
                                                                                                    
                                                                                                    
                                                                                                    
                                                                                                    
                                                                                                    
                                                                                                    
                                                                                                    
                                                                                                    
                                                                                                    
                                                                                                    
                                                                                                    
                                                                                                    
                                                                                                    
                                                                                                    
                                                                                                    
                                                                                                    
                           
<?xpacket end="w"?></metadata>
<defs>
    <style>
      .cls-1 {
        fill-rule: evenodd;
      }
    </style>
  </defs>
  <path id="Forma_1" data-name="Forma 1" class="cls-1" d="M495.752,3889.61a28.133,28.133,0,0,0-40.532,0,0.775,0.775,0,0,0,0,1.08,0.731,0.731,0,0,0,1.055,0,26.694,26.694,0,0,1,38.422,0,0.72,0.72,0,0,0,1.055,0A0.777,0.777,0,0,0,495.752,3889.61Zm-36.146,4.51a0.775,0.775,0,0,0,0,1.08,0.72,0.72,0,0,0,1.055,0,20.592,20.592,0,0,1,29.649,0,0.731,0.731,0,0,0,1.055,0,0.775,0.775,0,0,0,0-1.08A22.053,22.053,0,0,0,459.606,3894.12Zm15.88-.38a15.925,15.925,0,0,0-11.494,4.88,0.79,0.79,0,0,0,0,1.09,0.731,0.731,0,0,0,1.055,0,14.491,14.491,0,0,1,20.877,0,0.742,0.742,0,0,0,1.055,0,0.788,0.788,0,0,0,0-1.09A15.922,15.922,0,0,0,475.486,3893.74Zm0,7.21a5.027,5.027,0,1,0,4.889,5.03A4.969,4.969,0,0,0,475.486,3900.95Z" transform="translate(-455.031 -3881)"/>
</svg>
